<svg xmlns="http://www.w3.org/2000/svg" xmlns:xlink="http://www.w3.org/1999/xlink" version="1.1" width="1000" height="1000" viewBox="0 0 1000 1000" xml:space="preserve">
<desc>Created with Fabric.js 3.5.0</desc>
<defs>
</defs>
<rect x="0" y="0" width="100%" height="100%" fill="rgba(98,49,49,0)"/>
<g transform="matrix(1.4008 0 0 1.4048 498.6316 501.363)" id="748677">
<g style="" vector-effect="non-scaling-stroke">
		<g transform="matrix(0.1333 0 0 -0.1333 -0.0851 -0.2556)">
<path style="stroke: none; stroke-width: 1; stroke-dasharray: none; stroke-linecap: butt; stroke-dashoffset: 0; stroke-linejoin: miter; stroke-miterlimit: 4; is-custom-font: none; font-file-url: none; fill: rgb(226,20,20); fill-rule: nonzero; opacity: 1;" transform=" translate(-2560, -2561.2785)" d="M 2400 5114 c -542 -47 -966 -204 -1378 -511 c -431 -322 -766 -806 -917 -1324 c -71 -244 -99 -448 -99 -719 c 0 -271 28 -475 99 -719 c 232 -798 855 -1444 1651 -1709 c 265 -88 500 -125 799 -126 c 275 0 477 27 724 99 c 578 168 1090 550 1424 1060 c 209 320 336 664 393 1060 c 24 165 24 505 0 670 c -80 558 -311 1039 -689 1431 c -410 427 -916 685 -1507 769 c -104 15 -414 27 -500 19 z m 1061 -1209 c 219 -57 405 -243 465 -465 c 23 -87 23 -243 0 -329 c -48 -175 -172 -331 -329 -414 c -101 -53 -181 -72 -307 -71 c -102 0 -124 3 -201 30 c -203 72 -344 214 -415 419 c -25 70 -28 95 -28 200 c 0 105 3 130 28 200 c 63 182 176 309 350 391 c 132 63 290 77 437 39 z m -2001 -131 c 14 -9 103 -94 197 -188 l 173 -171 l 188 188 c 177 176 190 187 226 187 c 55 0 96 -43 96 -101 c 0 -41 -4 -46 -185 -228 l -185 -187 l 156 -154 c 184 -183 214 -220 214 -267 c 0 -49 -45 -93 -96 -93 c -36 0 -49 11 -226 187 l -188 187 l -188 -187 c -185 -183 -190 -187 -231 -187 c -58 0 -101 41 -101 96 c 0 36 11 49 185 224 c 102 102 185 190 185 195 c 0 5 -83 93 -185 195 c -174 175 -185 188 -185 224 c 0 76 87 122 150 80 z m 567 -1308 c 195 -62 355 -222 420 -420 c 23 -69 27 -98 27 -201 c 0 -106 -3 -130 -28 -200 c -81 -234 -270 -398 -508 -441 c -440 -80 -834 314 -754 754 c 70 391 465 628 843 508 z m 919 -135 c 21 -16 109 -99 194 -185 l 154 -156 l 187 185 c 182 181 187 185 228 185 c 58 0 101 -41 101 -96 c 0 -36 -11 -49 -187 -226 l -188 -188 l 171 -173 c 94 -94 179 -183 188 -197 c 60 -91 -53 -195 -140 -128 c -16 12 -101 96 -188 185 c -87 90 -164 163 -170 163 c -6 0 -94 -83 -196 -185 c -175 -174 -188 -185 -224 -185 c -55 0 -96 43 -96 101 c 0 41 4 46 187 231 l 187 188 l -187 188 c -176 177 -187 190 -187 226 c 0 28 7 45 29 67 c 39 39 85 39 137 0 z" stroke-linecap="round"/>
</g>
		<g transform="matrix(0.1333 0 0 -0.1333 97.8813 -95.2964)">
<path style="stroke: none; stroke-width: 1; stroke-dasharray: none; stroke-linecap: butt; stroke-dashoffset: 0; stroke-linejoin: miter; stroke-miterlimit: 4; is-custom-font: none; font-file-url: none; fill: rgb(226,20,20); fill-rule: nonzero; opacity: 1;" transform=" translate(-3294.2228, -3274.609)" d="M 3180 3712 c -240 -63 -387 -309 -325 -545 c 44 -169 163 -288 332 -332 c 251 -66 507 103 554 366 c 41 229 -112 459 -342 514 c -82 19 -138 18 -219 -3 z" stroke-linecap="round"/>
</g>
		<g transform="matrix(0.1333 0 0 -0.1333 -97.9419 95.1772)">
<path style="stroke: none; stroke-width: 1; stroke-dasharray: none; stroke-linecap: butt; stroke-dashoffset: 0; stroke-linejoin: miter; stroke-miterlimit: 4; is-custom-font: none; font-file-url: none; fill: rgb(226,20,20); fill-rule: nonzero; opacity: 1;" transform=" translate(-1825.549, -1846.0576)" d="M 1711 2284 c -174 -47 -302 -190 -333 -370 c -49 -295 216 -562 514 -516 c 264 40 439 302 373 555 c -65 248 -312 396 -554 331 z" stroke-linecap="round"/>
</g>
</g>
</g>
</svg>